<svg id="icon-logo" width="248" height="104" viewBox="0 0 248 104">
		<path d="M88.7722 36.7755V15.2245H67.222L51.9981 0L36.7742 15.2245H15.2239V36.7755L0 52L15.2239 67.2245V88.7755H36.7742L51.9981 104L67.222 88.7755H88.7722V67.2245L103.996 52L88.7722 36.7755ZM18.5732 42.0195C19.5204 42.3578 20.4339 42.6962 21.3811 43.0683C23.5125 41.8842 25.5423 40.5647 27.4707 39.11C25.4408 38.1627 23.3771 37.3168 21.3135 36.5387V21.3142H35.6577C36.5035 23.6148 37.4846 25.9154 38.5672 28.1145C40.0219 26.2199 41.3413 24.19 42.5254 22.1262C42.1194 21.1789 41.7473 20.1978 41.3752 19.2505L49.8329 10.7925C44.2508 29.8061 29.399 44.6584 10.3861 50.2069L18.5732 42.0195ZM12.4836 55.9245C33.3573 49.6994 49.6637 33.257 55.6856 12.2811L62.0458 18.6415C54.8737 38.907 39.007 54.9096 18.81 62.2511L12.4836 55.9245ZM85.1862 62.2511C84.0021 61.8452 82.8518 61.4053 81.6677 60.9317C79.5364 62.1158 77.5065 63.4353 75.5782 64.89C77.9125 65.9727 80.2807 66.9538 82.6827 67.8334V82.7534H67.6618C63.5682 71.7918 57.1065 61.879 48.6826 53.7254C47.1941 55.1126 45.6379 56.432 44.0478 57.6838C52.1334 65.3637 58.3244 74.8029 62.1473 85.2908L55.7871 91.6174C52.4379 80.3852 46.0438 70.2694 37.3493 62.4203C35.5563 63.5706 33.6956 64.6532 31.801 65.6344C40.4617 72.9421 46.7881 82.6181 50.002 93.4782L41.1384 84.6142C41.5105 83.5992 41.8826 82.6181 42.3224 81.637C41.1045 79.5732 39.7851 77.6109 38.2966 75.7502C37.214 78.0169 36.2329 80.3513 35.3533 82.7196H21.2458V67.8334C42.7622 59.8829 59.6777 42.8653 67.5264 21.3142H82.6488V35.8282C71.4508 39.8204 61.3016 46.2824 52.9792 54.7742C54.3662 56.2628 55.7195 57.7853 56.9712 59.3754C64.7523 51.3234 74.2926 45.2336 84.8479 41.512L91.2419 47.9063C79.9424 51.1204 69.7593 57.3793 61.7752 65.9727C62.9254 67.7319 64.008 69.5589 65.023 71.4197C72.6349 62.6571 82.7165 56.3982 93.9145 53.4209L85.1862 62.2511Z" fill="currentColor"></path>
		<path d="M71.3152 38.2975C69.4207 39.2786 67.5938 40.3613 65.7669 41.5116C64.4475 40.3274 63.1958 39.0757 62.0117 37.79C63.162 35.9969 64.2446 34.17 65.2257 32.2754C67.0864 34.4406 69.1162 36.4367 71.3152 38.2975Z" fill="currentColor"></path>
		<path d="M59.0702 46.2501C57.4802 47.5019 55.924 48.8214 54.4016 50.2085C54.0294 49.8363 53.6573 49.4642 53.2852 49.092C54.6722 47.6034 55.9916 46.0471 57.2434 44.457C57.8523 45.066 58.4613 45.675 59.0702 46.2501Z" fill="currentColor"></path>
		<path d="M69.7577 54.233C67.5587 55.7893 65.4273 57.4809 63.4313 59.3078L62.9238 58.7665C64.9537 56.9396 67.085 55.2141 69.3179 53.624L69.7577 54.233Z" fill="currentColor"></path>
		<path d="M83.9018 46.5536C81.1615 47.6362 78.5227 48.888 75.9854 50.309L75.6133 49.6662C78.1844 48.2452 80.8909 46.9596 83.6312 45.877L83.9018 46.5536Z" fill="currentColor"></path>
		<path d="M50.3047 70.4392L49.6957 70.879C48.1395 68.6799 46.448 66.5485 44.6211 64.5524L45.1624 64.0449C47.0231 66.0749 48.7485 68.2063 50.3047 70.4392Z" fill="currentColor"></path>
		<path d="M58.0547 84.7497L57.3781 85.0203C56.2955 82.3137 55.0438 79.641 53.6229 77.1036L54.2657 76.7314C55.7204 79.3027 56.9722 82.0093 58.0547 84.7497Z" fill="currentColor"></path>
		<path d="M57.9169 19.4197C56.8343 22.1601 55.6164 24.8329 54.1955 27.4041L53.5527 27.032C54.9398 24.4945 56.1915 21.8218 57.2403 19.1152L57.9169 19.4197Z" fill="currentColor"></path>
		<path d="M49.8683 34.3057C48.4812 36.2341 46.9927 38.1287 45.4026 39.888L44.8613 39.3805C46.4175 37.6212 47.9061 35.7605 49.2593 33.832L49.8683 34.3057Z" fill="currentColor"></path>
		<path d="M40.0545 45.3011C38.0247 47.128 35.8933 48.8535 33.6605 50.4436L33.2207 49.8346C35.4197 48.2783 37.5511 46.5867 39.5471 44.7598L40.0545 45.3011Z" fill="currentColor"></path>
		<path d="M27.3726 54.3684C24.7676 55.7893 22.0949 57.075 19.3546 58.1576L19.084 57.481C21.7905 56.3983 24.4631 55.1465 27.0004 53.7256L27.3726 54.3684Z" fill="currentColor"></path>
		<path d="M125.584 67.2905H124.061L123.317 65.1591H120.036L119.325 67.2905H117.803L120.915 58.9678H122.471L125.584 67.2905ZM122.979 64.0426L121.829 60.727C121.795 60.6255 121.761 60.4564 121.727 60.2196H121.693C121.659 60.4564 121.626 60.6255 121.592 60.727L120.442 64.0426H122.979Z" fill="currentColor"></path>
		<path d="M132.691 59.5777L128.124 66.1412H132.623V67.3253H126.195V66.6825L130.762 60.1529H126.534V58.9688H132.691V59.5777Z" fill="currentColor"></path>
		<path d="M133.436 62.5223H139.762C139.694 61.7442 139.424 61.1352 138.916 60.6615C138.409 60.2217 137.766 59.9849 136.954 59.9849C136.041 59.9849 135.262 60.2217 134.586 60.6954V59.4098C135.262 59.0038 136.108 58.8008 137.089 58.8008C138.375 58.8008 139.39 59.1729 140.134 59.9172C140.878 60.6616 141.25 61.7103 141.25 63.0298C141.25 64.2816 140.878 65.3304 140.134 66.1424C139.39 66.9543 138.409 67.3603 137.191 67.3603C135.973 67.3603 135.059 66.9543 134.383 66.1085C133.74 65.3642 133.436 64.1463 133.436 62.5223ZM139.762 63.6726H134.924C134.924 64.4508 135.161 65.0936 135.567 65.5334C135.973 66.007 136.548 66.2439 137.258 66.2439C137.969 66.2439 138.544 66.007 139.018 65.5334C139.424 65.0936 139.694 64.4846 139.762 63.6726Z" fill="currentColor"></path>
		<path d="M149.199 67.2911H147.575L146.255 65.0582C146.12 64.8552 146.019 64.686 145.917 64.5169C145.816 64.3815 145.68 64.2462 145.579 64.1447C145.477 64.0432 145.342 63.9756 145.207 63.9417C145.071 63.9079 144.902 63.8741 144.733 63.8741H144.192V67.2573H142.805V58.9346H145.545C145.951 58.9346 146.289 58.9684 146.628 59.0699C146.966 59.1714 147.237 59.3067 147.473 59.4759C147.71 59.6789 147.913 59.8819 148.048 60.1864C148.184 60.457 148.251 60.7953 148.251 61.1675C148.251 61.472 148.218 61.7426 148.116 61.9795C148.015 62.2163 147.913 62.4531 147.744 62.6223C147.575 62.8253 147.406 62.9944 147.169 63.1298C146.932 63.2651 146.695 63.3666 146.391 63.4342V63.4681C146.526 63.5696 146.661 63.6372 146.797 63.7387C146.898 63.8402 147 63.9417 147.101 64.0432C147.203 64.1447 147.304 64.28 147.406 64.4154C147.507 64.5507 147.609 64.7199 147.744 64.889L149.199 67.2911ZM144.124 60.0849V62.7914H145.274C145.477 62.7914 145.68 62.7576 145.849 62.6899C146.019 62.6223 146.188 62.5208 146.323 62.4193C146.458 62.2839 146.56 62.1486 146.628 61.9795C146.695 61.8103 146.729 61.6073 146.729 61.3705C146.729 60.9645 146.594 60.66 146.357 60.4232C146.12 60.1864 145.748 60.0849 145.274 60.0849H144.124Z" fill="currentColor"></path>
		<path d="M150.146 67.2915V58.9688H152.785C153.597 58.9688 154.24 59.1379 154.714 59.5101C155.187 59.8484 155.424 60.322 155.424 60.8972C155.424 61.3708 155.289 61.7768 155.018 62.1151C154.747 62.4535 154.375 62.7241 153.902 62.8594V62.8933C154.477 62.9609 154.917 63.1639 155.289 63.5361C155.627 63.9082 155.796 64.3481 155.796 64.9232C155.796 65.6337 155.526 66.2088 154.95 66.6486C154.375 67.0885 153.665 67.3253 152.819 67.3253H150.146V67.2915ZM151.534 60.0514V62.4196H152.413C152.887 62.4196 153.259 62.3181 153.53 62.0813C153.8 61.8445 153.936 61.54 153.936 61.134C153.936 60.4235 153.462 60.0514 152.515 60.0514H151.534ZM151.534 63.5361V66.175H152.718C153.225 66.175 153.631 66.0397 153.902 65.8028C154.172 65.566 154.308 65.2277 154.308 64.8217C154.308 63.9421 153.699 63.5361 152.515 63.5361H151.534Z" fill="currentColor"></path>
		<path d="M164.183 67.2915H162.661L161.917 65.16H158.635L157.925 67.2915H156.402L159.515 58.9688H161.071L164.183 67.2915ZM161.545 64.0436L160.394 60.728C160.361 60.6265 160.327 60.4574 160.293 60.2205H160.259C160.225 60.4574 160.191 60.6265 160.158 60.728L159.007 64.0436H161.545Z" fill="currentColor"></path>
		<path d="M170.237 58.9684L167.497 64.28V67.2911H166.11V64.28L163.438 58.9346H165.028L166.651 62.5208C166.685 62.5546 166.719 62.7238 166.821 62.9944H166.854C166.888 62.8591 166.956 62.7238 167.057 62.5208L168.783 58.9346H170.237V58.9684Z" fill="currentColor"></path>
		<path d="M176.838 66.9537C176.195 67.292 175.417 67.4273 174.504 67.4273C173.286 67.4273 172.338 67.0552 171.594 66.2771C170.85 65.4989 170.512 64.5178 170.512 63.266C170.512 61.9465 170.917 60.8639 171.729 60.0519C172.541 59.24 173.59 58.834 174.842 58.834C175.654 58.834 176.33 58.9355 176.838 59.1723V60.5594C176.263 60.2211 175.654 60.0519 174.977 60.0519C174.064 60.0519 173.353 60.3564 172.778 60.9316C172.203 61.5067 171.932 62.2849 171.932 63.2322C171.932 64.1456 172.203 64.8899 172.711 65.4313C173.218 65.9726 173.928 66.2432 174.774 66.2432C175.552 66.2432 176.229 66.0741 176.804 65.7019V66.9537H176.838Z" fill="currentColor"></path>
		<path d="M185.226 67.2915H183.703L182.959 65.16H179.678L178.967 67.2915H177.479L180.591 58.9688H182.147L185.226 67.2915ZM182.621 64.0436L181.471 60.728C181.437 60.6265 181.403 60.4574 181.369 60.2205H181.335C181.301 60.4574 181.268 60.6265 181.234 60.728L180.083 64.0436H182.621Z" fill="currentColor"></path>
		<path d="M193.449 67.2915H191.927L187.968 61.1678C187.867 60.9987 187.799 60.8634 187.732 60.6942H187.698C187.732 60.8634 187.732 61.2693 187.732 61.8445V67.2915H186.412V58.9688H188.036L191.893 64.957C192.062 65.1939 192.163 65.363 192.197 65.4645H192.231C192.197 65.2277 192.163 64.8555 192.163 64.3481V58.9688H193.483V67.2915H193.449Z" fill="currentColor"></path>
		<path d="M204.579 58.9684L201.838 64.28V67.2911H200.485V64.28L197.812 58.9346H199.403L201.026 62.5208C201.06 62.5546 201.094 62.7238 201.196 62.9944H201.229C201.263 62.8591 201.331 62.7238 201.432 62.5208L203.158 58.9346H204.579V58.9684Z" fill="currentColor"></path>
		<path d="M210.329 67.2915H205.66V58.9688H210.16V60.1529H207.047V62.5211H209.923V63.7052H207.047V66.175H210.329V67.2915Z" fill="currentColor"></path>
		<path d="M218.246 67.2911H216.622L215.302 65.0582C215.167 64.8552 215.066 64.686 214.964 64.5169C214.863 64.3815 214.727 64.2462 214.626 64.1447C214.524 64.0432 214.389 63.9756 214.254 63.9417C214.118 63.9079 213.949 63.8741 213.78 63.8741H213.239V67.2573H211.852V58.9346H214.592C214.998 58.9346 215.336 58.9684 215.675 59.0699C216.013 59.1714 216.284 59.3067 216.52 59.4759C216.757 59.6789 216.96 59.8819 217.096 60.1864C217.231 60.457 217.299 60.7953 217.299 61.1675C217.299 61.472 217.265 61.7426 217.163 61.9795C217.062 62.2163 216.96 62.4531 216.791 62.6223C216.622 62.8253 216.453 62.9944 216.216 63.1298C215.979 63.2651 215.742 63.3666 215.438 63.4342V63.4681C215.573 63.5696 215.708 63.6372 215.844 63.7387C215.945 63.8402 216.047 63.9417 216.148 64.0432C216.25 64.1447 216.351 64.28 216.453 64.4154C216.554 64.5507 216.656 64.7199 216.791 64.889L218.246 67.2911ZM213.171 60.0849V62.7914H214.321C214.524 62.7914 214.727 62.7576 214.897 62.6899C215.066 62.6223 215.235 62.5208 215.37 62.4193C215.505 62.2839 215.607 62.1486 215.675 61.9795C215.742 61.8103 215.776 61.6073 215.776 61.3705C215.776 60.9645 215.641 60.66 215.404 60.4232C215.167 60.1864 214.795 60.0849 214.321 60.0849H213.171Z" fill="currentColor"></path>
		<path d="M225.624 63.9088C225.624 66.2432 224.508 67.4274 222.309 67.4274C220.178 67.4274 219.129 66.3109 219.129 64.0441V58.9355H220.516V63.7397C220.516 65.3636 221.159 66.1756 222.411 66.1756C223.628 66.1756 224.237 65.3974 224.237 63.8073V58.9017H225.624V63.9088ZM221.159 58.1912C220.956 58.1912 220.787 58.1235 220.651 57.9882C220.516 57.8529 220.448 57.6837 220.448 57.5145C220.448 57.3115 220.516 57.1762 220.651 57.0409C220.787 56.9056 220.956 56.8379 221.159 56.8379C221.362 56.8379 221.531 56.9056 221.666 57.0409C221.802 57.1762 221.869 57.3115 221.869 57.5145C221.869 57.7175 221.802 57.8529 221.666 57.9882C221.497 58.1235 221.328 58.1912 221.159 58.1912ZM223.561 58.1912C223.358 58.1912 223.189 58.1235 223.053 57.9882C222.918 57.8529 222.85 57.6837 222.85 57.5145C222.85 57.3115 222.918 57.1762 223.053 57.0409C223.189 56.9056 223.358 56.8379 223.561 56.8379C223.764 56.8379 223.933 56.9056 224.068 57.0409C224.204 57.1762 224.271 57.3115 224.271 57.5145C224.271 57.7175 224.204 57.8529 224.068 57.9882C223.933 58.1235 223.764 58.1912 223.561 58.1912Z" fill="currentColor"></path>
		<path d="M227.176 66.9543V65.5334C227.312 65.6349 227.447 65.7702 227.616 65.8379C227.785 65.9394 227.988 66.007 228.191 66.0747C228.394 66.1424 228.597 66.1762 228.8 66.21C229.003 66.2439 229.172 66.2777 229.342 66.2777C229.917 66.2777 230.357 66.1762 230.627 65.9732C230.898 65.7702 231.067 65.4995 231.067 65.1274C231.067 64.9244 231.033 64.7552 230.932 64.6199C230.83 64.4846 230.695 64.3493 230.526 64.2139C230.357 64.0786 230.154 63.9771 229.917 63.8756C229.68 63.7741 229.443 63.6388 229.172 63.5373C228.902 63.402 228.631 63.2328 228.394 63.0636C228.158 62.8945 227.955 62.7253 227.752 62.5562C227.582 62.3532 227.447 62.1502 227.312 61.9133C227.21 61.6765 227.143 61.4059 227.143 61.0675C227.143 60.6615 227.244 60.3232 227.413 60.0526C227.582 59.7481 227.819 59.5113 228.124 59.3421C228.428 59.1391 228.733 59.0038 229.105 58.9361C229.477 58.8346 229.849 58.8008 230.221 58.8008C231.101 58.8008 231.744 58.9023 232.116 59.1053V60.4586C231.642 60.1202 231.033 59.9511 230.289 59.9511C230.086 59.9511 229.883 59.9849 229.68 60.0187C229.477 60.0526 229.308 60.1202 229.139 60.2217C228.969 60.3232 228.834 60.4247 228.733 60.5601C228.631 60.6954 228.597 60.8645 228.597 61.0675C228.597 61.2367 228.631 61.4059 228.699 61.5412C228.766 61.6765 228.902 61.8118 229.037 61.9133C229.172 62.0148 229.375 62.1502 229.578 62.2517C229.781 62.3532 230.052 62.4885 230.323 62.59C230.627 62.7253 230.898 62.8945 231.135 63.0636C231.405 63.2328 231.608 63.402 231.811 63.6049C232.014 63.8079 232.15 64.0448 232.285 64.2816C232.386 64.5184 232.454 64.8229 232.454 65.1274C232.454 65.5334 232.353 65.9055 232.183 66.21C232.014 66.5145 231.777 66.7513 231.507 66.9205C231.202 67.0897 230.898 67.225 230.526 67.3265C230.154 67.3941 229.748 67.4618 229.342 67.4618C229.206 67.4618 229.037 67.4618 228.834 67.428C228.631 67.3941 228.428 67.3603 228.225 67.3265C228.022 67.2926 227.819 67.225 227.616 67.1912C227.447 67.0897 227.312 67.022 227.176 66.9543Z" fill="currentColor"></path>
		<path d="M239.392 60.1187H236.99V67.2573H235.603V60.1187H233.201V58.9346H239.392V60.1187Z" fill="currentColor"></path>
		<path d="M247.003 63.9088C247.003 66.2432 245.887 67.4274 243.688 67.4274C241.557 67.4274 240.508 66.3109 240.508 64.0441V58.9355H241.895V63.7397C241.895 65.3636 242.538 66.1756 243.789 66.1756C245.007 66.1756 245.616 65.3974 245.616 63.8073V58.9017H247.003V63.9088ZM242.538 58.1912C242.335 58.1912 242.166 58.1235 242.03 57.9882C241.895 57.8529 241.827 57.6837 241.827 57.5145C241.827 57.3115 241.895 57.1762 242.03 57.0409C242.166 56.9056 242.335 56.8379 242.538 56.8379C242.741 56.8379 242.91 56.9056 243.045 57.0409C243.18 57.1762 243.248 57.3115 243.248 57.5145C243.248 57.7175 243.18 57.8529 243.045 57.9882C242.91 58.1235 242.741 58.1912 242.538 58.1912ZM244.973 58.1912C244.771 58.1912 244.601 58.1235 244.466 57.9882C244.331 57.8529 244.263 57.6837 244.263 57.5145C244.263 57.3115 244.331 57.1762 244.466 57.0409C244.601 56.9056 244.771 56.8379 244.973 56.8379C245.176 56.8379 245.346 56.9056 245.481 57.0409C245.616 57.1762 245.684 57.3115 245.684 57.5145C245.684 57.7175 245.616 57.8529 245.481 57.9882C245.346 58.1235 245.176 58.1912 244.973 58.1912Z" fill="currentColor"></path>
		<path d="M129.137 81.5688H127.614L123.622 75.4452C123.521 75.276 123.453 75.1407 123.386 74.9715H123.352C123.386 75.1407 123.386 75.5467 123.386 76.1218V81.5688H122.066V73.2461H123.69L127.547 79.2344C127.716 79.4712 127.817 79.6404 127.851 79.7419H127.885C127.851 79.505 127.817 79.1329 127.817 78.6254V73.2461H129.137V81.5688Z" fill="currentColor"></path>
		<path d="M130.658 76.7987H136.985C136.917 76.0205 136.646 75.4116 136.139 74.9379C135.631 74.4981 134.989 74.2613 134.177 74.2613C133.263 74.2613 132.485 74.4981 131.808 74.9718V73.6861C132.485 73.2801 133.331 73.0771 134.312 73.0771C135.598 73.0771 136.612 73.4493 137.357 74.1936C138.101 74.9379 138.473 75.9867 138.473 77.3062C138.473 78.558 138.101 79.6068 137.357 80.4187C136.612 81.2307 135.631 81.6367 134.413 81.6367C133.196 81.6367 132.282 81.2307 131.605 80.3849C130.963 79.6406 130.658 78.4226 130.658 76.7987ZM136.985 77.949H132.147C132.147 78.7271 132.384 79.3699 132.79 79.8097C133.196 80.2834 133.771 80.5202 134.481 80.5202C135.192 80.5202 135.767 80.2834 136.24 79.8097C136.646 79.3699 136.917 78.7609 136.985 77.949Z" fill="currentColor"></path>
		<path d="M143.413 81.7041C142.804 81.7041 142.263 81.6026 141.789 81.3996C141.316 81.1966 140.876 80.8921 140.538 80.5538C140.199 80.1816 139.929 79.7418 139.726 79.2343C139.523 78.7268 139.455 78.1517 139.455 77.5427C139.455 76.8661 139.557 76.2571 139.76 75.7158C139.963 75.1745 140.233 74.7008 140.571 74.3287C140.91 73.9565 141.35 73.652 141.857 73.449C142.365 73.246 142.94 73.1445 143.549 73.1445C144.124 73.1445 144.665 73.246 145.139 73.449C145.612 73.652 146.018 73.9565 146.357 74.2948C146.695 74.667 146.966 75.1068 147.135 75.6143C147.338 76.1218 147.405 76.6969 147.405 77.3059C147.405 78.1179 147.27 78.8622 146.999 79.4711C146.729 80.0801 146.323 80.5876 145.849 80.9598L148.251 82.6852H146.154L144.665 81.5349C144.462 81.6026 144.259 81.6364 144.056 81.6702C143.887 81.6702 143.65 81.7041 143.413 81.7041ZM143.481 74.2948C143.109 74.2948 142.771 74.3625 142.432 74.5317C142.128 74.667 141.857 74.9038 141.62 75.1745C141.383 75.4451 141.214 75.7834 141.079 76.1556C140.944 76.5277 140.876 76.9676 140.876 77.4074C140.876 77.881 140.944 78.287 141.045 78.6592C141.18 79.0313 141.35 79.3696 141.553 79.6403C141.789 79.911 142.026 80.114 142.365 80.2831C142.669 80.4184 143.007 80.5199 143.379 80.5199C143.785 80.5199 144.124 80.4523 144.462 80.3169C144.767 80.1816 145.037 79.9786 145.274 79.708C145.511 79.4373 145.68 79.1328 145.781 78.7607C145.917 78.3885 145.951 77.9487 145.951 77.475C145.951 76.9676 145.883 76.5277 145.781 76.1556C145.68 75.7834 145.511 75.4451 145.274 75.1745C145.071 74.9038 144.8 74.7008 144.496 74.5655C144.225 74.3625 143.887 74.2948 143.481 74.2948Z" fill="currentColor"></path>
		<path d="M153.599 81.5688H148.998V73.2461H150.385V80.4185H153.599V81.5688Z" fill="currentColor"></path>
		<path d="M155.49 72.4685C155.287 72.4685 155.118 72.4009 154.982 72.2655C154.847 72.1302 154.779 71.961 154.779 71.7919C154.779 71.6227 154.847 71.4536 154.982 71.3182C155.118 71.1829 155.287 71.1152 155.49 71.1152C155.693 71.1152 155.862 71.1829 155.997 71.3182C156.133 71.4536 156.2 71.5889 156.2 71.7919C156.2 71.961 156.133 72.1302 155.997 72.2655C155.828 72.4009 155.659 72.4685 155.49 72.4685ZM156.2 81.5694H154.779V73.2467H156.2V81.5694Z" fill="currentColor"></path>
		<path d="M164.052 73.2467L161.312 78.5584V81.5694H159.925V78.5584L157.252 73.2129H158.842L160.466 76.7991C160.5 76.8329 160.534 77.0021 160.635 77.2727H160.669C160.703 77.1374 160.77 77.0021 160.872 76.7991L162.597 73.2129H164.052V73.2467Z" fill="currentColor"></path>
		<path d="M170.917 73.2457L168.177 78.5574V81.5685H166.79V78.5574L164.117 73.2119H165.707L167.331 76.7981C167.365 76.832 167.399 77.0011 167.5 77.2718H167.534C167.568 77.1364 167.636 77.0011 167.737 76.7981L169.463 73.2119H170.917V73.2457Z" fill="currentColor"></path>
		<path d="M177.92 81.5688H176.397L175.653 79.4374H172.372L171.661 81.5688H170.139L173.251 73.2461H174.807L177.92 81.5688ZM175.281 78.3209L174.131 75.0054C174.097 74.9039 174.063 74.7347 174.029 74.4979H173.995C173.962 74.7347 173.928 74.9039 173.894 75.0054L172.744 78.3209H175.281Z" fill="currentColor"></path>
		<path d="M183.568 74.3964H181.166V81.5688H179.779V74.4302H177.377V73.2461H183.568V74.3964Z" fill="currentColor"></path>
		<path d="M194.902 81.5688H193.38L192.636 79.4374H189.354L188.644 81.5688H187.121L190.234 73.2461H191.79L194.902 81.5688ZM192.264 78.3209L191.113 75.0054C191.079 74.9039 191.046 74.7347 191.012 74.4979H190.978C190.944 74.7347 190.91 74.9039 190.876 75.0054L189.726 78.3209H192.264Z" fill="currentColor"></path>
		<path d="M202.414 80.9939C201.534 81.4675 200.587 81.7043 199.504 81.7043C198.286 81.7043 197.271 81.3322 196.527 80.5541C195.749 79.7759 195.377 78.7609 195.377 77.5092C195.377 76.2235 195.783 75.1747 196.629 74.3289C197.474 73.517 198.523 73.0771 199.809 73.0771C200.722 73.0771 201.5 73.2125 202.143 73.4831V74.9041C201.5 74.4643 200.756 74.2613 199.876 74.2613C198.997 74.2613 198.253 74.5658 197.711 75.1409C197.136 75.7161 196.865 76.4942 196.865 77.4077C196.865 78.355 197.102 79.0993 197.61 79.6744C198.083 80.2157 198.76 80.4864 199.606 80.4864C200.181 80.4864 200.688 80.3849 201.094 80.1481V78.1858H199.335V77.0355H202.481V80.9939H202.414Z" fill="currentColor"></path>
		<path d="M208.876 81.5688H204.207V73.2461H208.707V74.4302H205.56V76.7985H208.436V77.9826H205.56V80.4523H208.842V81.5688H208.876Z" fill="currentColor"></path>
		<path d="M217.404 81.5688H215.882L211.89 75.4452C211.788 75.276 211.72 75.1407 211.653 74.9715C211.687 75.1407 211.687 75.5467 211.687 76.1218V81.5688H210.367V73.2461H211.991L215.848 79.2344C216.017 79.4712 216.118 79.6404 216.152 79.7419H216.186C216.152 79.505 216.118 79.1329 216.118 78.6254V73.2461H217.438V81.5688H217.404Z" fill="currentColor"></path>
		<path d="M224.812 74.3964H222.41V81.5688H221.023V74.4302H218.621V73.2461H224.778V74.3964H224.812Z" fill="currentColor"></path>
		<path d="M230.664 81.5688H226.062V73.2461H227.45V80.4185H230.664V81.5688Z" fill="currentColor"></path>
		<path d="M232.523 72.4685C232.32 72.4685 232.151 72.4009 232.015 72.2655C231.88 72.1302 231.812 71.961 231.812 71.7919C231.812 71.6227 231.88 71.4536 232.015 71.3182C232.151 71.1829 232.32 71.1152 232.523 71.1152C232.726 71.1152 232.895 71.1829 233.03 71.3182C233.166 71.4536 233.233 71.5889 233.233 71.7919C233.233 71.961 233.166 72.1302 233.03 72.2655C232.895 72.4009 232.726 72.4685 232.523 72.4685ZM233.267 81.5694H231.846V73.2467H233.267V81.5694Z" fill="currentColor"></path>
		<path d="M241.116 73.2464L238.375 78.5242V81.5352H237.022V78.5242L234.35 73.1787H235.94L237.564 76.7649C237.597 76.7987 237.631 76.9679 237.733 77.2386H237.767C237.8 77.1032 237.868 76.9679 237.97 76.7649L239.695 73.1787H241.116V73.2464Z" fill="currentColor"></path>
		<path d="M242.876 72.4685C242.673 72.4685 242.504 72.4009 242.369 72.2655C242.234 72.1302 242.166 71.961 242.166 71.7919C242.166 71.6227 242.234 71.4536 242.369 71.3182C242.504 71.1829 242.673 71.1152 242.876 71.1152C243.079 71.1152 243.249 71.1829 243.384 71.3182C243.519 71.4536 243.587 71.5889 243.587 71.7919C243.587 71.961 243.519 72.1302 243.384 72.2655C243.249 72.4009 243.079 72.4685 242.876 72.4685ZM243.587 81.5694H242.166V73.2467H243.587V81.5694Z" fill="currentColor"></path>
		<path d="M139.828 52.0688L138.475 46.4189H129.307L127.852 52.0688H117.838L128.427 21.3154H139.929L149.91 52.0688H139.828ZM134.009 28.0142H133.806C133.772 28.3525 133.671 28.9277 133.502 29.7058C133.332 30.4839 132.453 33.8672 130.897 39.8216H136.783L134.652 31.4651C134.314 30.2133 134.111 29.063 134.009 28.0142Z" fill="currentColor"></path>
		<path d="M169.192 41.3779V52.0688H159.922V41.5132L150.449 21.3154H161.072L164.388 30.9914C164.624 31.6342 164.794 32.2094 164.861 32.7169C164.963 33.1905 165.064 33.698 165.166 34.2055H165.267C165.436 32.9199 165.673 31.9049 165.876 31.1944L169.158 21.3493H178.969L169.192 41.3779Z" fill="currentColor"></path>
		<path d="M203.497 52.0688L192.637 37.2165C191.791 36.0324 191.081 34.9836 190.54 34.0363H190.438C190.54 35.5588 190.574 37.2504 190.574 39.145V52.0688H181.98V21.3154H190.743L201.129 35.4234C201.264 35.5926 201.399 35.8294 201.602 36.1001C201.772 36.3707 201.975 36.6076 202.144 36.8782C202.313 37.1489 202.516 37.4195 202.685 37.6564C202.854 37.927 202.989 38.13 203.057 38.333H203.159C203.057 37.6902 203.023 36.6076 203.023 35.0851V21.3154H211.65V52.0688H203.497Z" fill="currentColor"></path>
		<path d="M236.955 52.0688L235.602 46.4189H226.434L224.979 52.0688H214.965L225.554 21.3154H237.056L247.037 52.0688H236.955ZM231.136 28.0142H230.933C230.899 28.3525 230.798 28.9277 230.629 29.7058C230.459 30.4839 229.58 33.8672 228.024 39.8216H233.91L231.779 31.4651C231.44 30.2133 231.237 29.063 231.136 28.0142Z" fill="currentColor"></path>
</svg>