<svg width="104" height="104" viewBox="0 0 104 104" fill="none" xmlns="http://www.w3.org/2000/svg">
<g clip-path="url(#clip0_3_2)">
<path d="M88.7722 36.7755V15.2245H67.222L51.9981 0L36.7742 15.2245H15.2239V36.7755L0 52L15.2239 67.2245V88.7755H36.7742L51.9981 104L67.222 88.7755H88.7722V67.2245L103.996 52L88.7722 36.7755ZM18.5732 42.0195C19.5204 42.3578 20.4339 42.6962 21.3811 43.0683C23.5125 41.8842 25.5423 40.5647 27.4707 39.11C25.4408 38.1627 23.3771 37.3168 21.3135 36.5387V21.3142H35.6577C36.5035 23.6148 37.4846 25.9154 38.5672 28.1145C40.0219 26.2199 41.3413 24.19 42.5254 22.1262C42.1194 21.1789 41.7473 20.1978 41.3752 19.2505L49.8329 10.7925C44.2508 29.8061 29.399 44.6584 10.3861 50.2069L18.5732 42.0195ZM12.4836 55.9245C33.3573 49.6994 49.6637 33.257 55.6856 12.2811L62.0458 18.6415C54.8737 38.907 39.007 54.9096 18.81 62.2511L12.4836 55.9245ZM85.1862 62.2511C84.0021 61.8452 82.8518 61.4053 81.6677 60.9317C79.5364 62.1158 77.5065 63.4353 75.5782 64.89C77.9125 65.9727 80.2807 66.9538 82.6827 67.8334V82.7534H67.6618C63.5682 71.7918 57.1065 61.879 48.6826 53.7254C47.1941 55.1126 45.6379 56.432 44.0478 57.6838C52.1334 65.3637 58.3244 74.8029 62.1473 85.2908L55.7871 91.6174C52.4379 80.3852 46.0438 70.2694 37.3493 62.4203C35.5563 63.5706 33.6956 64.6532 31.801 65.6344C40.4617 72.9421 46.7881 82.6181 50.002 93.4782L41.1384 84.6142C41.5105 83.5992 41.8826 82.6181 42.3224 81.637C41.1045 79.5732 39.7851 77.6109 38.2966 75.7502C37.214 78.0169 36.2329 80.3513 35.3533 82.7196H21.2458V67.8334C42.7622 59.8829 59.6777 42.8653 67.5264 21.3142H82.6488V35.8282C71.4508 39.8204 61.3016 46.2824 52.9792 54.7742C54.3662 56.2628 55.7195 57.7853 56.9712 59.3754C64.7523 51.3234 74.2926 45.2336 84.8479 41.512L91.2419 47.9063C79.9424 51.1204 69.7593 57.3793 61.7752 65.9727C62.9254 67.7319 64.008 69.5589 65.023 71.4197C72.6349 62.6571 82.7165 56.3982 93.9145 53.4209L85.1862 62.2511Z" fill="#0B2E47"/>
<path d="M29.9052 38.2975C29.1108 39.2786 28.3447 40.3613 27.5786 41.5116C27.0253 40.3274 26.5004 39.0757 26.0039 37.79C26.4863 35.9969 26.9402 34.17 27.3517 32.2754C28.1319 34.4406 28.9831 36.4367 29.9052 38.2975Z" fill="#0B2E47"/>
<path d="M24.7704 46.2501C24.1037 47.5019 23.4511 48.8214 22.8127 50.2085C22.6566 49.8363 22.5006 49.4642 22.3445 49.092C22.9262 47.6034 23.4794 46.0471 24.0044 44.457C24.2597 45.066 24.5151 45.675 24.7704 46.2501Z" fill="#0B2E47"/>
<path d="M29.2521 54.233C28.33 55.7893 27.4362 57.4809 26.5992 59.3078L26.3864 58.7665C27.2376 56.9396 28.1314 55.2141 29.0677 53.624L29.2521 54.233Z" fill="#0B2E47"/>
<path d="M35.1833 46.5536C34.0342 47.6362 32.9276 48.888 31.8636 50.309L31.7076 49.6662C32.7857 48.2452 33.9207 46.9596 35.0698 45.877L35.1833 46.5536Z" fill="#0B2E47"/>
<path d="M21.0947 70.4392L20.8393 70.879C20.1868 68.6799 19.4775 66.5485 18.7114 64.5524L18.9384 64.0449C19.7186 66.0749 20.4421 68.2063 21.0947 70.4392Z" fill="#0B2E47"/>
<path d="M24.3446 84.7497L24.0608 85.0203C23.6069 82.3137 23.082 79.641 22.4861 77.1036L22.7557 76.7314C23.3657 79.3027 23.8906 82.0093 24.3446 84.7497Z" fill="#0B2E47"/>
<path d="M24.2868 19.4197C23.8328 22.1601 23.3221 24.8329 22.7263 27.4041L22.4567 27.032C23.0384 24.4945 23.5633 21.8218 24.0031 19.1152L24.2868 19.4197Z" fill="#0B2E47"/>
<path d="M20.9117 34.3057C20.33 36.2341 19.7059 38.1287 19.0391 39.888L18.8121 39.3805C19.4646 37.6212 20.0889 35.7605 20.6563 33.832L20.9117 34.3057Z" fill="#0B2E47"/>
<path d="M16.7964 45.3011C15.9452 47.128 15.0514 48.8535 14.1152 50.4436L13.9307 49.8346C14.8529 48.2783 15.7466 46.5867 16.5836 44.7598L16.7964 45.3011Z" fill="#0B2E47"/>
<path d="M11.4784 54.3684C10.386 55.7893 9.26527 57.075 8.11616 58.1576L8.00269 57.481C9.13763 56.3983 10.2584 55.1465 11.3223 53.7256L11.4784 54.3684Z" fill="#0B2E47"/>
</g>
<defs>
<clipPath id="clip0_3_2">
<rect width="103.996" height="104" fill="white"/>
</clipPath>
</defs>
</svg>
